<?xml version="1.0" encoding="UTF-8"?>
<svg width="25px" height="27px" viewBox="0 0 25 27" version="1.1" xmlns="http://www.w3.org/2000/svg" xmlns:xlink="http://www.w3.org/1999/xlink">
    <!-- Generator: sketchtool 55.1 (78136) - https://sketchapp.com -->
    <title>CAE0AF6D-9757-4E14-93DE-61E56DEFD519-color</title>
    <desc>Created with sketchtool.</desc>
    <g id="all" stroke="none" stroke-width="1" fill="none" fill-rule="evenodd">
        <g id="Bookmol_style-guide-–-heder&amp;menu&amp;elements" transform="translate(-338.000000, -2033.000000)" fill="#4460A0">
            <g id="social_icons--hover" transform="translate(338.000000, 2033.000000)">
                <g id="Facebook_hover">
                    <g>
                        <path d="M13.1070011,25.5555556 L2.251026,25.5555556 C1.55990098,25.5555556 1,24.9486197 1,24.2001926 L1,2.35526765 C1,1.60664996 1.55998893,1 2.251026,1 L22.4157286,1 C23.1065898,1 23.6666667,1.60664996 23.6666667,2.35526765 L23.6666667,24.2001926 C23.6666667,24.948715 23.1065018,25.5555556 22.4157286,25.5555556 L16.6396719,25.5555556 L16.6396719,16.0462912 L19.5859683,16.0462912 L20.0271344,12.3403621 L16.6396719,12.3403621 L16.6396719,9.97436053 C16.6396719,8.90140855 16.9146971,8.17022718 18.3349423,8.17022718 L20.146397,8.16936965 L20.146397,4.85475697 C19.8331128,4.80959408 18.7578145,4.7086922 17.5067885,4.7086922 C14.8950606,4.7086922 13.1070011,6.43574375 13.1070011,9.60734064 L13.1070011,12.3403621 L10.1531408,12.3403621 L10.1531408,16.0462912 L13.1070011,16.0462912 L13.1070011,25.5555556 L13.1070011,25.5555556 Z"></path>
                    </g>
                </g>
            </g>
        </g>
    </g>
</svg>