<?xml version="1.0" encoding="UTF-8"?>
<svg width="42px" height="27px" viewBox="0 0 42 27" version="1.1" xmlns="http://www.w3.org/2000/svg" xmlns:xlink="http://www.w3.org/1999/xlink">
    <!-- Generator: sketchtool 55.1 (78136) - https://sketchapp.com -->
    <title>DD62BEAC-C91F-48A1-8300-F0D79EFD0BE8-color</title>
    <desc>Created with sketchtool.</desc>
    <g id="all" stroke="none" stroke-width="1" fill="none" fill-rule="evenodd">
        <g id="Bookmol_style-guide-–-heder&amp;menu&amp;elements" transform="translate(-451.000000, -2033.000000)" fill="#F93F2D">
            <g id="social_icons--hover" transform="translate(338.000000, 2033.000000)">
                <g id="GooglePlus_hover" transform="translate(113.000000, 0.000000)">
                    <g id="GooglePlus">
                        <path d="M35.8359522,11.235297 L35.8359522,6.91920788 L32.7585712,6.91920788 L32.7585712,11.235297 L28.3271427,11.235297 L28.3271427,14.3182177 L32.7585712,14.3182177 L32.7585712,18.7576237 L35.8359522,18.7576237 L35.8359522,14.3182177 L40.1442855,14.3182177 L40.1442855,11.235297 L35.8359522,11.235297 L35.8359522,11.235297 Z M13.432619,10.9886633 L13.432619,15.9213365 C13.432619,15.9213365 18.2092066,15.9149241 20.1541113,15.9149241 C19.1009085,19.1126528 17.4632494,20.8540098 13.432619,20.8540098 C9.35361209,20.8540098 6.16999997,17.5413498 6.16999997,13.4549999 C6.16999997,9.3686501 9.35361209,6.05599007 13.432619,6.05599007 C15.5892475,6.05599007 16.9820701,6.81537511 18.2596756,7.87380347 C19.2823508,6.84928724 19.1969227,6.70328011 21.7987868,4.24175285 C19.5900889,2.22774237 16.6545137,1 13.432619,1 C6.56624354,1 1,6.57626378 1,13.4549999 C1,20.3336128 6.56624354,25.9099998 13.432619,25.9099998 C23.6959306,25.9099998 26.2044884,16.9571979 25.372857,10.9886633 L13.432619,10.9886633 L13.432619,10.9886633 Z"></path>
                    </g>
                </g>
            </g>
        </g>
    </g>
</svg>