<?xml version="1.0" encoding="UTF-8"?>
<svg width="28px" height="23px" viewBox="0 0 28 23" version="1.1" xmlns="http://www.w3.org/2000/svg" xmlns:xlink="http://www.w3.org/1999/xlink">
    <!-- Generator: sketchtool 55.1 (78136) - https://sketchapp.com -->
    <title>9B13B4F3-7498-46C9-B0D5-1CCC9C8B7A96-color</title>
    <desc>Created with sketchtool.</desc>
    <g id="all" stroke="none" stroke-width="1" fill="none" fill-rule="evenodd">
        <g id="Bookmol_style-guide-–-heder&amp;menu&amp;elements" transform="translate(-392.000000, -2036.000000)" fill="#00AAEC">
            <g id="social_icons--hover" transform="translate(338.000000, 2033.000000)">
                <g id="Twitter_hover" transform="translate(54.000000, 3.000000)">
                    <g>
                        <path d="M26.3333333,3.40485534 C25.3963726,3.84102564 24.3875682,4.13598973 23.3293714,4.26778219 C24.4100194,3.58999238 25.2392147,2.51525621 25.6298644,1.23498656 C24.6180666,1.86256972 23.5,2.31913647 22.3055996,2.5638939 C21.3536714,1.49857149 19.9931326,0.833333333 18.4874098,0.833333333 C15.6001937,0.833333333 13.2577919,3.28875246 13.2577919,6.31684122 C13.2577919,6.74673568 13.3026941,7.16407849 13.3924987,7.56573171 C9.04446205,7.33666386 5.19035041,5.15581237 2.6084698,1.83432848 C2.15795034,2.64704867 1.90051065,3.58999238 1.90051065,4.59412544 C1.90051065,6.49570242 2.8240007,8.17448738 4.22794506,9.15822399 C3.37180842,9.1315517 2.56356753,8.8820874 1.85710512,8.47415834 L1.85710512,8.54162353 C1.85710512,11.1994382 3.6606797,13.4163757 6.05546751,13.9184423 C5.61692199,14.0470968 5.1544286,14.1114241 4.67696778,14.1114241 C4.34020074,14.1114241 4.01091742,14.078476 3.69211129,14.0141487 C4.35816165,16.1918623 6.28895932,17.7780787 8.57897517,17.8204406 C6.78887128,19.2921231 4.53178376,20.1691706 2.08161648,20.1691706 C1.65953513,20.1691706 1.241944,20.1440673 0.833333333,20.0938606 C3.1487938,21.6471289 5.8998063,22.5555556 8.85287903,22.5555556 C18.4769326,22.5555556 23.737982,14.2008547 23.737982,6.95383813 C23.737982,6.71535653 23.7334918,6.47687492 23.7245114,6.2431002 C24.7467864,5.46960395 25.6343546,4.50469484 26.3333333,3.40485534"></path>
                    </g>
                </g>
            </g>
        </g>
    </g>
</svg>